<svg width="27" height="26" viewBox="0 0 27 26" fill="none" xmlns="http://www.w3.org/2000/svg">
<path fill-rule="evenodd" clip-rule="evenodd" d="M14.577 3.31247C14.577 2.718 14.0951 2.23608 13.5006 2.23608C12.9062 2.23608 12.4242 2.718 12.4242 3.31247V3.92695C8.773 4.44906 5.96591 7.58814 5.96591 11.3842L5.96591 15.6902C5.96591 15.6902 5.96592 15.69 5.96591 15.6902C5.96581 15.6923 5.96508 15.7067 5.96041 15.7349C5.95481 15.7688 5.94486 15.815 5.92844 15.8742C5.89515 15.9945 5.84217 16.1442 5.76815 16.3211C5.61975 16.676 5.41055 17.0845 5.17917 17.4967C4.74415 18.2716 4.52488 19.195 4.6895 20.0732C4.8631 20.9993 5.45919 21.8069 6.47726 22.1945C7.38671 22.5408 8.59729 22.8574 10.196 23.0459C10.234 23.0789 10.279 23.1166 10.3307 23.158C10.4924 23.2874 10.7236 23.4551 11.0156 23.622C11.5954 23.9533 12.4525 24.3021 13.5006 24.3021C14.5488 24.3021 15.4059 23.9533 15.9856 23.622C16.2777 23.4551 16.5088 23.2874 16.6706 23.158C16.7223 23.1166 16.7673 23.0789 16.8053 23.0459C18.404 22.8574 19.6146 22.5408 20.524 22.1945C21.5421 21.8069 22.1382 20.9993 22.3118 20.0732C22.4764 19.195 22.2571 18.2716 21.8221 17.4967C21.5907 17.0845 21.3815 16.676 21.2331 16.3211C21.1591 16.1442 21.1061 15.9945 21.0728 15.8742C21.0564 15.815 21.0465 15.7688 21.0409 15.7349C21.0362 15.7067 21.0355 15.6925 21.0354 15.6905C21.0354 15.6903 21.0354 15.6905 21.0354 15.6905L21.0354 15.6814V11.3847C21.0354 7.58875 18.2283 4.44915 14.577 3.92696V3.31247ZM8.11869 11.3842C8.11869 8.4121 10.528 6.00345 13.5006 6.00345C16.4731 6.00345 18.8826 8.4125 18.8826 11.3847V15.6909C18.8826 16.1892 19.0693 16.7267 19.247 17.1517C19.4401 17.6135 19.6932 18.1021 19.9449 18.5505C20.1896 18.9865 20.248 19.3985 20.1959 19.6765C20.1527 19.9067 20.0377 20.0761 19.758 20.1826C18.601 20.6232 16.6479 21.0729 13.5006 21.0729C10.3534 21.0729 8.40028 20.6232 7.24331 20.1826C6.9636 20.0761 6.84856 19.9067 6.80542 19.6765C6.75329 19.3985 6.81165 18.9864 7.05639 18.5505C7.3081 18.1021 7.56115 17.6135 7.75425 17.1517C7.93199 16.7267 8.11869 16.1892 8.11869 15.6909V11.3842Z" fill="black"/>
</svg>
