<svg width="20" height="20" viewBox="0 0 20 20" fill="none" xmlns="http://www.w3.org/2000/svg">
<path d="M4.99935 8.33329C4.99935 7.87306 5.37244 7.49996 5.83268 7.49996H9.99935C10.4596 7.49996 10.8327 7.87306 10.8327 8.33329C10.8327 8.79353 10.4596 9.16663 9.99935 9.16663H5.83268C5.37244 9.16663 4.99935 8.79353 4.99935 8.33329Z" fill="black"/>
<path d="M5.83268 10.8333C5.37244 10.8333 4.99935 11.2064 4.99935 11.6666C4.99935 12.1269 5.37244 12.5 5.83268 12.5H13.3327C13.7929 12.5 14.166 12.1269 14.166 11.6666C14.166 11.2064 13.7929 10.8333 13.3327 10.8333H5.83268Z" fill="black"/>
<path fill-rule="evenodd" clip-rule="evenodd" d="M1.66602 9.99996C1.66602 5.39759 5.39698 1.66663 9.99935 1.66663C14.6017 1.66663 18.3327 5.39759 18.3327 9.99996C18.3327 14.6023 14.6017 18.3333 9.99935 18.3333C9.30574 18.3333 8.63083 18.2484 7.98492 18.088L3.36499 17.5105C2.36643 17.3857 1.67246 16.4548 1.8379 15.4622L2.12364 13.7478C2.12529 13.7378 2.1255 13.7277 2.12425 13.7177L1.91133 12.0144C1.75093 11.3685 1.66602 10.6936 1.66602 9.99996ZM9.99935 3.33329C6.31745 3.33329 3.33268 6.31806 3.33268 9.99996C3.33268 10.5721 3.40456 11.1262 3.53936 11.6543L3.55231 11.7051L3.77805 13.511C3.79928 13.6809 3.79577 13.8529 3.76763 14.0218L3.48189 15.7362C3.47216 15.7946 3.51298 15.8493 3.57172 15.8567L8.29421 16.447L8.34497 16.46C8.87309 16.5947 9.42722 16.6666 9.99935 16.6666C13.6812 16.6666 16.666 13.6819 16.666 9.99996C16.666 6.31806 13.6812 3.33329 9.99935 3.33329Z" fill="black"/>
</svg>
