<svg width="32" height="32" viewBox="0 0 32 32" fill="none" xmlns="http://www.w3.org/2000/svg">
<path d="M14.356 14.3634C15.0069 13.7126 15.0069 12.6573 14.356 12.0064C13.7051 11.3555 12.6498 11.3555 11.999 12.0064C11.3481 12.6573 11.3481 13.7126 11.999 14.3634C12.6498 15.0143 13.7051 15.0143 14.356 14.3634Z" fill="#F56630"/>
<path d="M20.0129 17.6633C20.6638 18.3142 20.6638 19.3695 20.0129 20.0203C19.362 20.6712 18.3067 20.6712 17.6559 20.0203C17.005 19.3695 17.005 18.3142 17.6559 17.6633C18.3067 17.0124 19.362 17.0124 20.0129 17.6633Z" fill="#F56630"/>
<path d="M12.2299 17.8857C11.7092 18.4064 11.7092 19.2506 12.2299 19.7713C12.7506 20.292 13.5948 20.292 14.1155 19.7713L19.7723 14.1144C20.293 13.5937 20.293 12.7495 19.7723 12.2288C19.2516 11.7081 18.4074 11.7081 17.8867 12.2288L12.2299 17.8857Z" fill="#F56630"/>
<path fill-rule="evenodd" clip-rule="evenodd" d="M19.3369 2.70522C17.477 0.905958 14.5253 0.905958 12.6654 2.70522C12.193 3.16222 11.5361 3.37565 10.8853 3.2836C8.32305 2.92118 5.93507 4.65615 5.48797 7.205C5.3744 7.8524 4.96844 8.41116 4.38783 8.71922C2.10189 9.93208 1.18976 12.7393 2.32622 15.0642C2.61488 15.6547 2.61488 16.3454 2.32622 16.9359C1.18976 19.2607 2.10189 22.068 4.38783 23.2808C4.96844 23.5889 5.3744 24.1476 5.48797 24.795C5.93507 27.3439 8.32305 29.0789 10.8853 28.7164C11.5361 28.6244 12.193 28.8378 12.6654 29.2948C14.5253 31.0941 17.477 31.0941 19.3369 29.2948C19.8093 28.8378 20.4661 28.6244 21.1169 28.7164C23.6792 29.0789 26.0672 27.3439 26.5143 24.795C26.6278 24.1476 27.0338 23.5889 27.6144 23.2808C29.9004 22.068 30.8125 19.2607 29.676 16.9359C29.3874 16.3454 29.3874 15.6547 29.676 15.0642C30.8125 12.7393 29.9004 9.93208 27.6144 8.71922C27.0338 8.41116 26.6278 7.8524 26.5143 7.205C26.0672 4.65615 23.6792 2.92118 21.1169 3.2836C20.4661 3.37565 19.8093 3.16222 19.3369 2.70522ZM14.5195 4.62182C15.3456 3.82265 16.6567 3.82265 17.4828 4.62182C18.5463 5.65072 20.0252 6.13123 21.4904 5.92398C22.6285 5.76301 23.6891 6.53363 23.8877 7.66574C24.1434 9.12329 25.0574 10.3813 26.3646 11.0749C27.3799 11.6136 27.7851 12.8604 27.2803 13.8931C26.6304 15.2225 26.6304 16.7775 27.2803 18.107C27.7851 19.1396 27.3799 20.3865 26.3646 20.9252C25.0574 21.6188 24.1434 22.8768 23.8877 24.3343C23.6891 25.4664 22.6285 26.237 21.4904 26.0761C20.0252 25.8688 18.5463 26.3493 17.4828 27.3782C16.6567 28.1774 15.3456 28.1774 14.5195 27.3782C13.4559 26.3493 11.9771 25.8688 10.5119 26.0761C9.37378 26.237 8.31312 25.4664 8.11453 24.3343C7.85885 22.8768 6.94487 21.6188 5.63766 20.9252C4.62233 20.3865 4.21719 19.1396 4.72197 18.107C5.37185 16.7775 5.37185 15.2225 4.72197 13.8931C4.21719 12.8604 4.62233 11.6136 5.63766 11.0749C6.94487 10.3813 7.85885 9.12329 8.11453 7.66574C8.31312 6.53363 9.37378 5.76301 10.5119 5.92398C11.9771 6.13123 13.4559 5.65072 14.5195 4.62182Z" fill="#F56630"/>
</svg>
