<svg width="40" height="40" viewBox="0 0 40 40" fill="none" xmlns="http://www.w3.org/2000/svg">
<path d="M13.3335 18.3335C13.8057 18.3335 14.2018 18.1735 14.5218 17.8535C14.8418 17.5335 15.0013 17.1379 15.0002 16.6668C14.9991 16.1957 14.8391 15.8002 14.5202 15.4802C14.2013 15.1602 13.8057 15.0002 13.3335 15.0002C12.8613 15.0002 12.4657 15.1602 12.1468 15.4802C11.8279 15.8002 11.6679 16.1957 11.6668 16.6668C11.6657 17.1379 11.8257 17.5341 12.1468 17.8552C12.4679 18.1763 12.8635 18.3357 13.3335 18.3335ZM20.0002 18.3335C20.4724 18.3335 20.8685 18.1735 21.1885 17.8535C21.5085 17.5335 21.6679 17.1379 21.6668 16.6668C21.6657 16.1957 21.5057 15.8002 21.1868 15.4802C20.8679 15.1602 20.4724 15.0002 20.0002 15.0002C19.5279 15.0002 19.1324 15.1602 18.8135 15.4802C18.4946 15.8002 18.3346 16.1957 18.3335 16.6668C18.3324 17.1379 18.4924 17.5341 18.8135 17.8552C19.1346 18.1763 19.5302 18.3357 20.0002 18.3335ZM26.6668 18.3335C27.1391 18.3335 27.5352 18.1735 27.8552 17.8535C28.1752 17.5335 28.3346 17.1379 28.3335 16.6668C28.3324 16.1957 28.1724 15.8002 27.8535 15.4802C27.5346 15.1602 27.1391 15.0002 26.6668 15.0002C26.1946 15.0002 25.7991 15.1602 25.4802 15.4802C25.1613 15.8002 25.0013 16.1957 25.0002 16.6668C24.9991 17.1379 25.1591 17.5341 25.4802 17.8552C25.8013 18.1763 26.1968 18.3357 26.6668 18.3335ZM3.3335 36.6668V6.66683C3.3335 5.75016 3.66016 4.96572 4.3135 4.3135C4.96683 3.66127 5.75127 3.33461 6.66683 3.3335H33.3335C34.2502 3.3335 35.0352 3.66016 35.6885 4.3135C36.3418 4.96683 36.6679 5.75127 36.6668 6.66683V26.6668C36.6668 27.5835 36.3407 28.3685 35.6885 29.0218C35.0363 29.6752 34.2513 30.0013 33.3335 30.0002H10.0002L3.3335 36.6668ZM8.5835 26.6668H33.3335V6.66683H6.66683V28.5418L8.5835 26.6668Z" fill="#2BAF75"/>
</svg>
