<svg width="40" height="40" viewBox="0 0 40 40" fill="none" xmlns="http://www.w3.org/2000/svg">
<path fill-rule="evenodd" clip-rule="evenodd" d="M19.9998 11.6668C22.5871 11.6667 25.0737 12.6694 26.9372 14.4643C28.8008 16.2591 29.8961 18.7063 29.9931 21.2918L29.9998 21.6668V33.3335H31.6665C32.0913 33.334 32.4998 33.4966 32.8087 33.7882C33.1176 34.0799 33.3035 34.4784 33.3284 34.9025C33.3533 35.3266 33.2153 35.7441 32.9427 36.0699C32.67 36.3956 32.2833 36.605 31.8615 36.6552L31.6665 36.6668H8.33312C7.90832 36.6664 7.49973 36.5037 7.19084 36.2121C6.88194 35.9205 6.69606 35.5219 6.67116 35.0978C6.64627 34.6738 6.78424 34.2562 7.05689 33.9304C7.32954 33.6047 7.71629 33.3953 8.13812 33.3452L8.33312 33.3335H9.99978V21.6668C9.99978 19.0147 11.0534 16.4711 12.9287 14.5958C14.8041 12.7204 17.3476 11.6668 19.9998 11.6668ZM18.5715 19.9768L16.0865 24.1168C15.933 24.3723 15.8502 24.6639 15.8463 24.9618C15.8425 25.2597 15.9178 25.5534 16.0646 25.8127C16.2114 26.072 16.4243 26.2877 16.6818 26.4378C16.9392 26.5878 17.2318 26.6669 17.5298 26.6668H19.5565L18.5715 28.3085C18.3533 28.6869 18.2923 29.1359 18.4018 29.5587C18.5113 29.9816 18.7824 30.3446 19.1568 30.5696C19.5312 30.7946 19.979 30.8636 20.4038 30.7618C20.8286 30.66 21.1964 30.3955 21.4281 30.0252L23.9131 25.8835C24.0665 25.6281 24.1494 25.3365 24.1532 25.0385C24.1571 24.7406 24.0818 24.447 23.935 24.1876C23.7882 23.9283 23.5752 23.7126 23.3178 23.5626C23.0604 23.4125 22.7678 23.3335 22.4698 23.3335H20.4431L21.4281 21.6918C21.6463 21.3134 21.7072 20.8645 21.5978 20.4416C21.4883 20.0187 21.2172 19.6557 20.8428 19.4307C20.4683 19.2057 20.0206 19.1367 19.5958 19.2385C19.171 19.3404 18.8032 19.6049 18.5715 19.9752V19.9768ZM9.23645 8.56516L9.39312 8.7035L10.5715 9.88183C10.8704 10.1818 11.0439 10.5842 11.0568 11.0075C11.0698 11.4307 10.9211 11.843 10.641 12.1606C10.361 12.4782 9.97053 12.6773 9.54899 12.7175C9.12746 12.7576 8.70644 12.6358 8.37145 12.3768L8.21478 12.2385L7.03645 11.0602C6.73754 10.7602 6.56399 10.3578 6.55107 9.93452C6.53815 9.51127 6.68681 9.09897 6.96687 8.78137C7.24692 8.46376 7.63737 8.26465 8.05891 8.2245C8.48045 8.18434 8.90146 8.30614 9.23645 8.56516ZM32.9631 8.7035C33.2756 9.01604 33.4511 9.43989 33.4511 9.88183C33.4511 10.3238 33.2756 10.7476 32.9631 11.0602L31.7848 12.2385C31.631 12.3977 31.4471 12.5246 31.2438 12.612C31.0405 12.6993 30.8218 12.7453 30.6005 12.7472C30.3792 12.7492 30.1597 12.707 29.9549 12.6232C29.75 12.5394 29.5639 12.4156 29.4075 12.2592C29.251 12.1027 29.1272 11.9166 29.0434 11.7118C28.9596 11.5069 28.9174 11.2875 28.9194 11.0662C28.9213 10.8449 28.9673 10.6262 29.0546 10.4228C29.142 10.2195 29.2689 10.0356 29.4281 9.88183L30.6065 8.7035C30.919 8.39104 31.3428 8.21552 31.7848 8.21552C32.2267 8.21552 32.6506 8.39104 32.9631 8.7035ZM19.9998 3.3335C20.4418 3.3335 20.8657 3.50909 21.1783 3.82165C21.4909 4.13421 21.6665 4.55814 21.6665 5.00016V6.66683C21.6665 7.10886 21.4909 7.53278 21.1783 7.84534C20.8657 8.1579 20.4418 8.3335 19.9998 8.3335C19.5578 8.3335 19.1338 8.1579 18.8213 7.84534C18.5087 7.53278 18.3331 7.10886 18.3331 6.66683V5.00016C18.3331 4.55814 18.5087 4.13421 18.8213 3.82165C19.1338 3.50909 19.5578 3.3335 19.9998 3.3335Z" fill="#2BAF75"/>
</svg>
