<svg width="40" height="40" viewBox="0 0 40 40" fill="none" xmlns="http://www.w3.org/2000/svg">
<path d="M2.51187 12.4998H19.9902H2.51187ZM37.4902 12.4998H20.0085H37.4902ZM5.0152 19.1665H34.9819H5.0152ZM12.8485 25.8332H27.1485H12.8485ZM19.9885 12.4998C19.8815 10.2539 18.9139 8.13536 17.2866 6.58374C15.6592 5.03213 13.497 4.16652 11.2485 4.1665C6.4152 4.1665 2.49854 8.1365 2.49854 12.9698C2.49854 15.5698 3.6452 18.0615 5.63187 19.7398L15.0602 27.6998C16.6077 29.0061 17.8514 30.6343 18.7047 32.4709C19.5579 34.3074 20 36.3081 20.0002 38.3332C20.0004 36.3081 20.4425 34.3074 21.2957 32.4709C22.149 30.6343 23.3927 29.0061 24.9402 27.6998L34.3685 19.7398C35.3504 18.906 36.1392 17.8687 36.6803 16.6997C37.2213 15.5307 37.5017 14.258 37.5019 12.9698C37.5019 8.1365 33.5835 4.1665 28.7519 4.1665C26.5031 4.16609 24.3405 5.03151 22.7128 6.58317C21.0851 8.13483 20.1156 10.2536 20.0085 12.4998M19.9902 12.4998H20.0085H19.9902Z" fill="#2BAF75"/>
</svg>
