<svg width="20" height="21" viewBox="0 0 20 21" fill="none" xmlns="http://www.w3.org/2000/svg">
<path d="M12.9877 11.4767L8.28604 11.4767C8.1766 11.4767 8.06824 11.4551 7.96713 11.4132C7.86603 11.3714 7.77416 11.31 7.69678 11.2326C7.6194 11.1552 7.55801 11.0633 7.51614 10.9622C7.47426 10.8611 7.4527 10.7528 7.4527 10.6433C7.4527 10.5339 7.47426 10.4255 7.51614 10.3244C7.55801 10.2233 7.6194 10.1315 7.69678 10.0541C7.77416 9.9767 7.86603 9.91531 7.96713 9.87343C8.06824 9.83155 8.1766 9.81 8.28604 9.81L12.9877 9.81L12.0527 8.875C11.8964 8.71863 11.8087 8.5066 11.8088 8.28554C11.8089 8.06448 11.8968 7.85251 12.0531 7.69625C12.2095 7.53999 12.4215 7.45225 12.6426 7.45233C12.8636 7.45241 13.0756 7.5403 13.2319 7.69667L15.5885 10.0533C15.6663 10.1306 15.728 10.2224 15.7702 10.3236C15.8123 10.4248 15.834 10.5333 15.834 10.6429C15.834 10.7525 15.8123 10.861 15.7702 10.9622C15.728 11.0634 15.6663 11.1553 15.5885 11.2325L13.2327 13.5892C13.0764 13.7455 12.8645 13.8334 12.6434 13.8335C12.4224 13.8336 12.2103 13.7458 12.054 13.5896C11.8976 13.4333 11.8097 13.2214 11.8096 13.0003C11.8095 12.7792 11.8973 12.5672 12.0535 12.4108L12.9877 11.4767ZM4.99937 18C4.77835 18 4.56639 17.9122 4.41011 17.7559C4.25383 17.5996 4.16604 17.3877 4.16604 17.1667L4.16604 3.83333C4.16604 3.61232 4.25383 3.40036 4.41011 3.24408C4.56639 3.0878 4.77835 3 4.99937 3C5.22038 3 5.43234 3.0878 5.58862 3.24408C5.7449 3.40036 5.8327 3.61232 5.8327 3.83333L5.8327 17.1667C5.8327 17.3877 5.7449 17.5996 5.58862 17.7559C5.43234 17.9122 5.22038 18 4.99937 18Z" fill="#FF5E15"/>
</svg>
