<svg width="24" height="24" viewBox="0 0 24 24" fill="none" xmlns="http://www.w3.org/2000/svg">
<path fill-rule="evenodd" clip-rule="evenodd" d="M3.00027 17C3.00027 18.1046 3.8957 19 5.00027 19H15.0003C15.5526 19 16.0003 19.4477 16.0003 20C16.0003 20.5523 15.5526 21 15.0003 21H5.00027C2.79113 21 1.00027 19.2091 1.00027 17V8.02268C0.999912 8.00739 0.999911 7.99206 1.00027 7.97671V7C1.00027 4.79086 2.79113 3 5.00027 3H19.0003C21.2094 3 23.0003 4.79086 23.0003 7V7.9767C23.0006 7.99206 23.0006 8.00739 23.0003 8.02268V16C23.0003 16.5523 22.5525 17 22.0003 17C21.448 17 21.0003 16.5523 21.0003 16V9.47703L13.4858 12.4828C12.5322 12.8643 11.4683 12.8643 10.5147 12.4828L3.00027 9.47703V17ZM3.00027 7V7.32297L11.2575 10.6259C11.7343 10.8166 12.2662 10.8166 12.743 10.6259L21.0003 7.32297V7C21.0003 5.89543 20.1048 5 19.0003 5H5.00027C3.8957 5 3.00027 5.89543 3.00027 7Z" fill="black"/>
<path d="M22.6964 19.2071C23.0869 18.8166 23.0869 18.1834 22.6964 17.7929C22.3058 17.4024 21.6727 17.4024 21.2822 17.7929L19.3434 19.7316L19.0615 19.4497C18.671 19.0592 18.0378 19.0592 17.6473 19.4497C17.2568 19.8403 17.2568 20.4734 17.6473 20.8639L18.6363 21.8529C19.0268 22.2435 19.66 22.2435 20.0505 21.8529L22.6964 19.2071Z" fill="black"/>
</svg>
