<svg width="24" height="24" viewBox="0 0 24 24" fill="none" xmlns="http://www.w3.org/2000/svg">
<path fill-rule="evenodd" clip-rule="evenodd" d="M3.00027 17C3.00027 18.1046 3.8957 19 5.00027 19H15.0003C15.5526 19 16.0003 19.4477 16.0003 20C16.0003 20.5523 15.5526 21 15.0003 21H5.00027C2.79113 21 1.00027 19.2091 1.00027 17V8.02268C0.999912 8.00739 0.999911 7.99206 1.00027 7.97671V7C1.00027 4.79086 2.79113 3 5.00027 3H19.0003C21.2094 3 23.0003 4.79086 23.0003 7V7.9767C23.0006 7.99206 23.0006 8.00739 23.0003 8.02268V16C23.0003 16.5523 22.5525 17 22.0003 17C21.448 17 21.0003 16.5523 21.0003 16V9.47703L13.4858 12.4828C12.5322 12.8643 11.4683 12.8643 10.5147 12.4828L3.00027 9.47703V17ZM3.00027 7V7.32297L11.2575 10.6259C11.7343 10.8166 12.2662 10.8166 12.743 10.6259L21.0003 7.32297V7C21.0003 5.89543 20.1048 5 19.0003 5H5.00027C3.8957 5 3.00027 5.89543 3.00027 7Z" fill="black"/>
<path d="M21.0003 18C21.0003 17.4477 20.5525 17 20.0003 17C19.448 17 19.0003 17.4477 19.0003 18V19H18.0003C17.448 19 17.0003 19.4477 17.0003 20C17.0003 20.5523 17.448 21 18.0003 21H19.0003V22C19.0003 22.5523 19.448 23 20.0003 23C20.5525 23 21.0003 22.5523 21.0003 22V21H22.0003C22.5525 21 23.0003 20.5523 23.0003 20C23.0003 19.4477 22.5525 19 22.0003 19H21.0003V18Z" fill="black"/>
</svg>
