<svg width="24" height="24" viewBox="0 0 24 24" fill="none" xmlns="http://www.w3.org/2000/svg">
<path d="M6 10C6 9.44772 6.44772 9 7 9H12C12.5523 9 13 9.44772 13 10C13 10.5523 12.5523 11 12 11H7C6.44772 11 6 10.5523 6 10Z" fill="black"/>
<path d="M7 13C6.44772 13 6 13.4477 6 14C6 14.5523 6.44772 15 7 15H16C16.5523 15 17 14.5523 17 14C17 13.4477 16.5523 13 16 13H7Z" fill="black"/>
<path fill-rule="evenodd" clip-rule="evenodd" d="M1 16C1 18.2091 2.79086 20 5 20H17C19.2091 20 21 18.2091 21 16V9.29669C21 8.94864 21.0908 8.60661 21.2635 8.30442L22.0133 6.99228C22.7752 5.65897 21.8125 4 20.2768 4H5C2.79086 4 1 5.79086 1 8V16ZM5 18C3.89543 18 3 17.1046 3 16V8C3 6.89543 3.89543 6 5 6H20.2768L19.527 7.31214C19.1817 7.91653 19 8.60059 19 9.29669V16C19 17.1046 18.1046 18 17 18H5Z" fill="black"/>
</svg>
