<svg width="20" height="21" viewBox="0 0 20 21" fill="none" xmlns="http://www.w3.org/2000/svg">
<path d="M4.2432 5.84725C3.78472 5.80714 3.38052 6.1463 3.34041 6.60478C3.3003 7.06327 3.63946 7.46746 4.09794 7.50758L5.75827 7.65283C6.21675 7.69295 6.62095 7.35379 6.66106 6.8953C6.70117 6.43682 6.36201 6.03262 5.90353 5.99251L4.2432 5.84725Z" fill="black"/>
<path d="M13.3404 7.43812C13.3805 6.97963 13.7847 6.64047 14.2432 6.68058L15.9035 6.82584C16.362 6.86596 16.7012 7.27015 16.6611 7.72864C16.6209 8.18712 16.2168 8.52628 15.7583 8.48617L14.0979 8.34091C13.6395 8.3008 13.3003 7.8966 13.3404 7.43812Z" fill="black"/>
<path d="M4.2432 13.0032C3.78472 12.9631 3.38052 13.3023 3.34041 13.7607C3.3003 14.2192 3.63946 14.6234 4.09794 14.6635L5.75827 14.8088C6.21675 14.8489 6.62095 14.5098 6.66106 14.0513C6.70117 13.5928 6.36201 13.1886 5.90353 13.1485L4.2432 13.0032Z" fill="black"/>
<path d="M13.3404 14.9381C13.3805 14.4796 13.7847 14.1405 14.2432 14.1806L15.9035 14.3258C16.362 14.366 16.7012 14.7702 16.6611 15.2286C16.6209 15.6871 16.2168 16.0263 15.7583 15.9862L14.0979 15.8409C13.6395 15.8008 13.3003 15.3966 13.3404 14.9381Z" fill="black"/>
<path fill-rule="evenodd" clip-rule="evenodd" d="M10.0007 8.00004C11.3814 8.00004 12.5007 9.11933 12.5007 10.5C12.5007 11.8808 11.3814 13 10.0007 13C8.61994 13 7.50065 11.8808 7.50065 10.5C7.50065 9.11933 8.61994 8.00004 10.0007 8.00004ZM10.834 10.5C10.834 10.0398 10.4609 9.66671 10.0007 9.66671C9.54041 9.66671 9.16732 10.0398 9.16732 10.5C9.16732 10.9603 9.54041 11.3334 10.0007 11.3334C10.4609 11.3334 10.834 10.9603 10.834 10.5Z" fill="black"/>
<path fill-rule="evenodd" clip-rule="evenodd" d="M4.37092 3.20137C2.44323 3.03591 0.833984 4.56328 0.833984 6.47389V13.1331C0.833984 14.904 2.21313 16.3588 3.95752 16.5056C4.67253 16.5657 5.54964 16.6445 6.58601 16.7461C6.77179 16.7643 7.18485 16.8486 7.78205 16.9867C8.1747 17.0775 8.61669 17.1841 9.08102 17.2962C9.29992 17.3491 9.5245 17.4033 9.75049 17.4574C10.4499 17.6249 11.165 17.7922 11.7804 17.9182C12.3696 18.0388 12.947 18.139 13.3305 18.1406C14.2835 18.1446 15.2156 18.1266 16.0133 18.1023C17.7975 18.0479 19.1673 16.5738 19.1673 14.8177V8.16072C19.1673 6.2337 17.5477 4.72744 15.6537 4.77863C14.9431 4.79784 14.1466 4.81071 13.3375 4.80729C13.1452 4.80647 12.7266 4.74394 12.1145 4.61868C11.5285 4.49877 10.8368 4.33716 10.1387 4.16994C9.92007 4.11756 9.70026 4.0645 9.48336 4.01214L9.48252 4.01194C9.01357 3.89874 8.55811 3.7888 8.15756 3.69618C7.59075 3.5651 7.06389 3.4516 6.74863 3.42069C5.83285 3.33091 5.03965 3.25877 4.37092 3.20137ZM2.50065 6.47389C2.50065 5.51574 3.29783 4.78206 4.22839 4.86193C4.89046 4.91876 5.67697 4.99028 6.58601 5.0794C6.77179 5.09762 7.18485 5.18189 7.78205 5.31999C8.17476 5.4108 8.61684 5.51752 9.08125 5.62962C9.3003 5.6825 9.52433 5.73658 9.75049 5.79075C10.4499 5.95828 11.165 6.12558 11.7804 6.25151C12.3696 6.37209 12.947 6.47232 13.3305 6.47394C14.161 6.47745 14.9754 6.46424 15.6987 6.44469C16.6874 6.41797 17.5006 7.20396 17.5006 8.16072V14.8177C17.5006 15.7022 16.8176 16.4103 15.9624 16.4364C15.1783 16.4603 14.2662 16.4779 13.3375 16.474C13.1452 16.4731 12.7266 16.4106 12.1145 16.2853C11.5285 16.1654 10.8368 16.0038 10.1387 15.8366C9.91984 15.7842 9.6998 15.7311 9.48268 15.6786C9.01364 15.5654 8.55817 15.4555 8.15756 15.3628C7.59075 15.2318 7.06389 15.1183 6.74863 15.0874C5.70458 14.985 4.81985 14.9056 4.09726 14.8448C3.19571 14.7689 2.50065 14.0174 2.50065 13.1331V6.47389Z" fill="black"/>
</svg>
