<svg width="40" height="40" viewBox="0 0 40 40" fill="none" xmlns="http://www.w3.org/2000/svg">
<path d="M23.3517 1.89941C22.1877 1.92285 21.3517 2.14941 20.797 2.55566L13.1955 6.62598L8.96892 12.3752C8.0783 13.7502 8.71111 16.4064 11.4924 14.7033L14.5392 10.6877C18.4064 7.35254 26.2971 8.88301 22.5549 15.5783C20.7189 19.4533 21.5783 21.3439 23.9455 22.1408L25.0236 18.5158C26.8908 14.3127 30.3752 13.5549 30.2346 10.1643L38.6096 10.7658L38.5314 2.00879L23.3517 1.89941ZM19.1252 9.97676C17.7658 9.95332 16.4299 10.5158 15.4611 11.3283L12.4064 15.3439C13.2424 16.008 14.0861 15.6486 14.922 14.8439C15.9064 15.3439 16.672 14.5705 17.297 13.0236C17.5549 11.9689 17.9377 11.2268 19.1252 9.97676ZM12.9064 17.4768C12.8752 17.4768 12.8361 17.4768 12.8049 17.4846C12.547 17.5393 12.2424 17.8127 12.0392 18.4377C11.8283 19.0627 11.7814 19.9533 11.9689 20.9064C12.1564 21.8518 12.547 22.6564 12.9845 23.1564C13.4064 23.6486 13.797 23.7893 14.0549 23.7346C14.3205 23.6877 14.6174 23.4064 14.8205 22.7893C15.0314 22.1643 15.0861 21.2658 14.8986 20.3205C14.7033 19.3674 14.3127 18.5627 13.883 18.0705C13.508 17.633 13.1642 17.4768 12.9064 17.4768ZM19.3595 25.8205C18.7424 25.8283 17.9689 26.0236 17.2111 26.3908C16.3439 26.8205 15.6642 27.4143 15.297 27.9611C14.9299 28.5002 14.8986 28.9064 15.0158 29.1486C15.133 29.383 15.4767 29.6096 16.133 29.6408C16.7892 29.6799 17.672 29.5002 18.5392 29.0705C19.4064 28.6408 20.0861 28.0549 20.4533 27.508C20.8205 26.9689 20.8517 26.5549 20.7345 26.3205C20.6174 26.0783 20.2736 25.8596 19.6174 25.8283C19.5314 25.8205 19.4533 25.8205 19.3595 25.8205ZM11.7345 33.2893C11.3674 33.2971 11.0314 33.3518 10.7345 33.4377C10.0705 33.633 9.68767 33.9846 9.56267 34.3986C9.42986 34.8205 9.56267 35.3205 10.008 35.8596C10.4611 36.3908 11.2189 36.8986 12.1564 37.1799C13.0861 37.4611 13.9924 37.4533 14.6642 37.2502C15.3361 37.0549 15.7189 36.7033 15.8439 36.2893C15.9689 35.8674 15.8439 35.3674 15.3908 34.8283C14.9455 34.2971 14.1877 33.7893 13.2502 33.508C12.7189 33.3518 12.2033 33.2814 11.7345 33.2893Z" fill="url(#paint0_linear_57_794)"/>
<defs>
<linearGradient id="paint0_linear_57_794" x1="23.6012" y1="1.89941" x2="23.6012" y2="37.3974" gradientUnits="userSpaceOnUse">
<stop stop-color="#9BC2FB"/>
<stop offset="1" stop-color="#C3F3DE"/>
</linearGradient>
</defs>
</svg>
