<svg width="16" height="17" viewBox="0 0 16 17" fill="none" xmlns="http://www.w3.org/2000/svg">
<g clip-path="url(#clip0_57_875)">
<path d="M8 0.5C6.41775 0.5 4.87103 0.969192 3.55544 1.84824C2.23985 2.72729 1.21447 3.97672 0.608967 5.43853C0.00346627 6.90034 -0.15496 8.50887 0.153721 10.0607C0.462403 11.6126 1.22433 13.038 2.34315 14.1569C3.46197 15.2757 4.88743 16.0376 6.43928 16.3463C7.99113 16.655 9.59966 16.4965 11.0615 15.891C12.5233 15.2855 13.7727 14.2602 14.6518 12.9446C15.5308 11.629 16 10.0822 16 8.5C15.9977 6.37898 15.1541 4.3455 13.6543 2.84572C12.1545 1.34593 10.121 0.502329 8 0.5ZM8 13.3C7.84178 13.3 7.68711 13.2531 7.55555 13.1652C7.42399 13.0773 7.32145 12.9523 7.2609 12.8061C7.20035 12.66 7.18451 12.4991 7.21537 12.3439C7.24624 12.1887 7.32243 12.0462 7.43432 11.9343C7.5462 11.8224 7.68875 11.7462 7.84393 11.7154C7.99911 11.6845 8.15997 11.7003 8.30615 11.7609C8.45233 11.8214 8.57727 11.924 8.66518 12.0555C8.75308 12.1871 8.8 12.3418 8.8 12.5C8.8 12.7122 8.71572 12.9157 8.56569 13.0657C8.41566 13.2157 8.21218 13.3 8 13.3ZM8.8 9.6728V10.1C8.8 10.3122 8.71572 10.5157 8.56569 10.6657C8.41566 10.8157 8.21218 10.9 8 10.9C7.78783 10.9 7.58435 10.8157 7.43432 10.6657C7.28429 10.5157 7.2 10.3122 7.2 10.1V8.9656C7.2 8.85787 7.22175 8.75125 7.26395 8.65214C7.30615 8.55302 7.36794 8.46345 7.4456 8.3888C7.52267 8.31368 7.61434 8.25519 7.71493 8.21694C7.81552 8.17868 7.9229 8.16148 8.0304 8.1664C8.18507 8.172 8.33927 8.1463 8.48375 8.09083C8.62823 8.03536 8.76002 7.95127 8.8712 7.8436C8.98238 7.73594 9.07065 7.60692 9.13073 7.46429C9.1908 7.32166 9.22144 7.16836 9.2208 7.0136C9.23311 6.69534 9.11848 6.38523 8.90214 6.15148C8.6858 5.91773 8.38546 5.7795 8.0672 5.7672C7.74894 5.75489 7.43883 5.86952 7.20508 6.08586C6.97134 6.3022 6.83311 6.60254 6.8208 6.9208C6.81827 7.02622 6.79463 7.13005 6.75128 7.22618C6.70792 7.3223 6.64573 7.40875 6.56839 7.48043C6.49105 7.5521 6.40012 7.60754 6.30098 7.64347C6.20184 7.6794 6.09651 7.69508 5.9912 7.6896C5.7794 7.68127 5.57957 7.58923 5.43557 7.43369C5.29158 7.27814 5.2152 7.07181 5.2232 6.86C5.24591 6.34555 5.41005 5.84734 5.69757 5.42013C5.98509 4.99293 6.38484 4.65329 6.85288 4.43856C7.32092 4.22383 7.83911 4.14232 8.35046 4.20301C8.86182 4.2637 9.34654 4.46422 9.75131 4.78254C10.1561 5.10086 10.4652 5.52463 10.6448 6.00726C10.8243 6.4899 10.8673 7.01269 10.769 7.51816C10.6706 8.02363 10.4348 8.4922 10.0874 8.87233C9.74006 9.25246 9.29459 9.52944 8.8 9.6728Z" fill="url(#paint0_linear_57_875)"/>
</g>
<defs>
<linearGradient id="paint0_linear_57_875" x1="8" y1="0.5" x2="8" y2="16.5" gradientUnits="userSpaceOnUse">
<stop stop-color="#2B5EA9"/>
<stop offset="1" stop-color="#2BAF75"/>
</linearGradient>
<clipPath id="clip0_57_875">
<rect width="16" height="16" fill="white" transform="translate(0 0.5)"/>
</clipPath>
</defs>
</svg>
