<svg width="40" height="40" viewBox="0 0 40 40" fill="none" xmlns="http://www.w3.org/2000/svg">
<path d="M10 15C10 17.6522 11.0536 20.1957 12.9289 22.0711C14.8043 23.9464 17.3478 25 20 25C22.6522 25 25.1957 23.9464 27.0711 22.0711C28.9464 20.1957 30 17.6522 30 15C30 12.3478 28.9464 9.8043 27.0711 7.92893C25.1957 6.05357 22.6522 5 20 5C17.3478 5 14.8043 6.05357 12.9289 7.92893C11.0536 9.8043 10 12.3478 10 15Z" stroke="url(#paint0_linear_57_801)" stroke-width="2" stroke-linecap="round" stroke-linejoin="round"/>
<path d="M20 25C22.2217 24.445 23.3333 24.1667 23.3333 15C23.3333 8.88889 22.2222 5.55556 20 5C17.7778 5.55556 16.6667 8.88889 16.6667 15C16.6667 24.1667 17.7783 24.445 20 25ZM20 25V30M10 15H30M5 33.3333H16.6667M16.6667 33.3333C16.6667 34.2174 17.0179 35.0652 17.643 35.6904C18.2681 36.3155 19.1159 36.6667 20 36.6667C20.8841 36.6667 21.7319 36.3155 22.357 35.6904C22.9821 35.0652 23.3333 34.2174 23.3333 33.3333M16.6667 33.3333C16.6667 32.4493 17.0179 31.6014 17.643 30.9763C18.2681 30.3512 19.1159 30 20 30M23.3333 33.3333H35M23.3333 33.3333C23.3333 32.4493 22.9821 31.6014 22.357 30.9763C21.7319 30.3512 20.8841 30 20 30" stroke="url(#paint1_linear_57_801)" stroke-width="2" stroke-linecap="round" stroke-linejoin="round"/>
<defs>
<linearGradient id="paint0_linear_57_801" x1="20" y1="5" x2="20" y2="25" gradientUnits="userSpaceOnUse">
<stop stop-color="#2B5EA9"/>
<stop offset="1" stop-color="#2BAF75"/>
</linearGradient>
<linearGradient id="paint1_linear_57_801" x1="20" y1="5" x2="20" y2="36.6667" gradientUnits="userSpaceOnUse">
<stop stop-color="#2B5EA9"/>
<stop offset="1" stop-color="#2BAF75"/>
</linearGradient>
</defs>
</svg>
