<svg width="40" height="40" viewBox="0 0 40 40" fill="none" xmlns="http://www.w3.org/2000/svg">
<path fill-rule="evenodd" clip-rule="evenodd" d="M33.0002 16.9669C32.4835 11.6669 29.3502 3.3335 19.6669 3.3335C9.98354 3.3335 6.85018 11.6669 6.33354 16.9669C4.52104 17.6547 3.32549 19.3949 3.33354 21.3335V23.6669C3.33354 26.2442 5.42291 28.3335 8.00018 28.3335C10.5775 28.3335 12.6669 26.2441 12.6669 23.6669V21.3335C12.6585 19.4367 11.5069 17.7323 9.75018 17.0169C10.0835 13.9501 11.7169 6.66686 19.6669 6.66686C27.6169 6.66686 29.2335 13.9501 29.5669 17.0169C27.8138 17.7339 26.668 19.4394 26.6669 21.3335V23.6669C26.6705 24.545 26.9208 25.4044 27.3894 26.147C27.858 26.8896 28.5259 27.4856 29.3169 27.8669C28.6169 29.1835 26.8335 30.9669 22.4502 31.5001C21.574 30.1697 19.8788 29.6451 18.4042 30.2483C16.9298 30.8515 16.0881 32.4137 16.3956 33.9769C16.7031 35.54 18.0738 36.6669 19.6669 36.6669C20.2842 36.6634 20.8884 36.4886 21.4122 36.162C21.936 35.8353 22.3588 35.3697 22.6335 34.8169C29.7835 34.0001 32.0669 30.3169 32.7835 28.1501C34.7224 27.5221 36.0263 25.7047 36.0002 23.6669V21.3335C36.0082 19.3949 34.8127 17.6547 33.0002 16.9669ZM9.33354 23.6669C9.33354 24.4032 8.73658 25.0001 8.00018 25.0001C7.26377 25.0001 6.6669 24.4033 6.6669 23.6669V21.3335C6.66555 21.1575 6.69904 20.9831 6.76544 20.8201C6.83185 20.6572 6.92984 20.509 7.05379 20.3841C7.17773 20.2592 7.32517 20.1601 7.48761 20.0924C7.65004 20.0248 7.82426 19.9899 8.00022 19.9899C8.17617 19.9899 8.35039 20.0248 8.51283 20.0924C8.67526 20.1601 8.8227 20.2592 8.94665 20.3841C9.07059 20.509 9.16859 20.6572 9.23499 20.8201C9.30139 20.9831 9.33488 21.1575 9.33354 21.3335V23.6669ZM30.0002 21.3335C30.0002 20.5971 30.5971 20.0001 31.3335 20.0001C32.0699 20.0001 32.6669 20.5971 32.6669 21.3335V23.6669C32.6669 24.4032 32.0699 25.0001 31.3335 25.0001C30.5971 25.0001 30.0002 24.4033 30.0002 23.6669V21.3335Z" fill="url(#paint0_linear_57_810)"/>
<defs>
<linearGradient id="paint0_linear_57_810" x1="19.667" y1="3.3335" x2="19.667" y2="36.6669" gradientUnits="userSpaceOnUse">
<stop stop-color="#2B5EA9"/>
<stop offset="1" stop-color="#2BAF75"/>
</linearGradient>
</defs>
</svg>
