<svg width="40" height="40" viewBox="0 0 40 40" fill="none" xmlns="http://www.w3.org/2000/svg">
<path d="M2.51187 12.4998H19.9902H20.0085M37.4902 12.4998H20.0085M20.0085 12.4998C20.1156 10.2536 21.0851 8.13483 22.7128 6.58317C24.3405 5.03151 26.5031 4.16609 28.7519 4.1665C33.5835 4.1665 37.5019 8.1365 37.5019 12.9698C37.5017 14.258 37.2213 15.5307 36.6803 16.6997C36.1392 17.8687 35.3504 18.906 34.3685 19.7398L24.9402 27.6998C23.3927 29.0061 22.149 30.6343 21.2957 32.4709C20.4425 34.3074 20.0004 36.3081 20.0002 38.3332C20 36.3081 19.5579 34.3074 18.7047 32.4709C17.8514 30.6343 16.6077 29.0061 15.0602 27.6998L5.63187 19.7398C3.6452 18.0615 2.49854 15.5698 2.49854 12.9698C2.49854 8.1365 6.4152 4.1665 11.2485 4.1665C13.497 4.16652 15.6592 5.03213 17.2866 6.58374C18.9139 8.13536 19.8815 10.2539 19.9885 12.4998M5.0152 19.1665H34.9819M12.8485 25.8332H27.1485" stroke="url(#paint0_linear_57_771)" stroke-width="3"/>
<defs>
<linearGradient id="paint0_linear_57_771" x1="20.0002" y1="4.1665" x2="20.0002" y2="38.3332" gradientUnits="userSpaceOnUse">
<stop stop-color="#9BC2FB"/>
<stop offset="1" stop-color="#C3F3DE"/>
</linearGradient>
</defs>
</svg>
