<svg width="24" height="24" viewBox="0 0 24 24" fill="none" xmlns="http://www.w3.org/2000/svg">
<path fill-rule="evenodd" clip-rule="evenodd" d="M5.52547 12.836C6.17618 13.5089 7.13711 13.7534 8.01381 13.5009C7.35684 14.1339 7.08805 15.0884 7.34551 15.9884L8.46142 19.8893C9.03574 21.897 11.6727 22.3574 12.8934 20.6631L21.957 8.08333C23.2169 6.33465 21.8215 3.91783 19.6772 4.13459L4.25092 5.69398C2.17327 5.90401 1.25354 8.41785 2.70511 9.91909L5.52547 12.836ZM9.47174 14.8848L19.3242 8.31614L11.2707 19.494C11.0265 19.8329 10.4992 19.7408 10.3843 19.3392L9.26838 15.4383C9.20856 15.2292 9.29078 15.0054 9.47174 14.8848ZM7.54433 11.5464L18.1591 6.29824L4.45207 7.68384L4.3515 6.68891L4.45207 7.68384C4.03654 7.72585 3.8526 8.22862 4.14291 8.52886L6.96327 11.4457C7.11445 11.6021 7.34936 11.6428 7.54433 11.5464Z" fill="black"/>
</svg>
