<svg width="24" height="24" viewBox="0 0 24 24" fill="none" xmlns="http://www.w3.org/2000/svg">
<path fill-rule="evenodd" clip-rule="evenodd" d="M8 3V5.12602C9.72523 5.57006 11 7.13616 11 9C11 10.8638 9.72523 12.4299 8 12.874V21C8 21.5523 7.55228 22 7 22C6.44772 22 6 21.5523 6 21L6 12.874C4.27477 12.4299 3 10.8638 3 9C3 7.13616 4.27477 5.57006 6 5.12602L6 3C6 2.44772 6.44772 2 7 2C7.55228 2 8 2.44772 8 3ZM5 9C5 7.89543 5.89543 7 7 7C8.10457 7 9 7.89543 9 9C9 10.1046 8.10457 11 7 11C5.89543 11 5 10.1046 5 9Z" fill="black"/>
<path fill-rule="evenodd" clip-rule="evenodd" d="M16 18.874V21C16 21.5523 16.4477 22 17 22C17.5523 22 18 21.5523 18 21V18.874C19.7252 18.4299 21 16.8638 21 15C21 13.1362 19.7252 11.5701 18 11.126V3C18 2.44772 17.5523 2 17 2C16.4477 2 16 2.44772 16 3V11.126C14.2748 11.5701 13 13.1362 13 15C13 16.8638 14.2748 18.4299 16 18.874ZM19 15C19 13.8954 18.1046 13 17 13C15.8954 13 15 13.8954 15 15C15 16.1046 15.8954 17 17 17C18.1046 17 19 16.1046 19 15Z" fill="black"/>
</svg>
