<svg width="24" height="24" viewBox="0 0 24 24" fill="none" xmlns="http://www.w3.org/2000/svg">
<path fill-rule="evenodd" clip-rule="evenodd" d="M12.0002 5C9.79108 5 8.00022 6.79086 8.00022 9C8.00022 11.2091 9.79108 13 12.0002 13C14.2094 13 16.0002 11.2091 16.0002 9C16.0002 6.79086 14.2094 5 12.0002 5ZM10.0002 9C10.0002 7.89543 10.8957 7 12.0002 7C13.1048 7 14.0002 7.89543 14.0002 9C14.0002 10.1046 13.1048 11 12.0002 11C10.8957 11 10.0002 10.1046 10.0002 9Z" fill="black"/>
<path fill-rule="evenodd" clip-rule="evenodd" d="M12.0002 22C10.8633 22 9.22409 21.7313 7.98006 21.1596C7.36982 20.8792 6.71504 20.4632 6.32882 19.8409C6.12493 19.5124 5.99611 19.1251 6.00032 18.6941C6.0045 18.2672 6.13838 17.8623 6.35761 17.4913C7.36008 15.7947 9.43977 14 12.0002 14C14.5607 14 16.6404 15.7947 17.6428 17.4913C17.8621 17.8623 17.9959 18.2672 18.0001 18.6941C18.0043 19.1251 17.8755 19.5124 17.6716 19.8409C17.2854 20.4632 16.6306 20.8792 16.0204 21.1596C14.7763 21.7313 13.1371 22 12.0002 22ZM8.07948 18.5087C8.00289 18.6383 8.00033 18.7027 8.00023 18.7136C8.00014 18.7209 7.99989 18.7407 8.02814 18.7862C8.10753 18.9142 8.33812 19.1231 8.8152 19.3423C9.74582 19.77 11.0891 20 12.0002 20C12.9114 20 14.2546 19.77 15.1852 19.3423C15.6623 19.1231 15.8929 18.9142 15.9723 18.7862C16.0005 18.7407 16.0003 18.7214 16.0002 18.7141C16.0001 18.7032 15.9976 18.6383 15.921 18.5087C15.1438 17.1934 13.6237 16 12.0002 16C10.3767 16 8.85669 17.1934 8.07948 18.5087Z" fill="black"/>
<path fill-rule="evenodd" clip-rule="evenodd" d="M2.50022 12C2.50022 10.3431 3.84337 9 5.50022 9C7.15708 9 8.50022 10.3431 8.50022 12C8.50022 13.6569 7.15708 15 5.50022 15C3.84337 15 2.50022 13.6569 2.50022 12ZM5.50022 11C4.94794 11 4.50022 11.4477 4.50022 12C4.50022 12.5523 4.94794 13 5.50022 13C6.05251 13 6.50022 12.5523 6.50022 12C6.50022 11.4477 6.05251 11 5.50022 11Z" fill="black"/>
<path d="M2.89595 19.4446C2.65041 19.9393 2.05033 20.1413 1.55563 19.8957C1.06093 19.6502 0.858947 19.0501 1.10449 18.5554C1.47187 17.8152 2.02795 17.0721 2.72747 16.5034C3.42726 15.9346 4.32399 15.5 5.34739 15.5C5.89968 15.5 6.34739 15.9477 6.34739 16.5C6.34739 17.0523 5.89968 17.5 5.34739 17.5C4.90641 17.5 4.441 17.688 3.98902 18.0554C3.53678 18.423 3.15146 18.9298 2.89595 19.4446Z" fill="black"/>
<path fill-rule="evenodd" clip-rule="evenodd" d="M15.8103 12C15.8103 10.3431 17.1534 9 18.8103 9C20.4671 9 21.8103 10.3431 21.8103 12C21.8103 13.6569 20.4671 15 18.8103 15C17.1534 15 15.8103 13.6569 15.8103 12ZM18.8103 11C18.258 11 17.8103 11.4477 17.8103 12C17.8103 12.5523 18.258 13 18.8103 13C19.3626 13 19.8103 12.5523 19.8103 12C19.8103 11.4477 19.3626 11 18.8103 11Z" fill="black"/>
<path d="M22.9004 18.5554C23.1459 19.0501 22.9439 19.6502 22.4492 19.8957C21.9545 20.1413 21.3544 19.9393 21.1089 19.4446C20.8534 18.9298 20.4681 18.423 20.0158 18.0554C19.5638 17.688 19.0984 17.5 18.6574 17.5C18.1052 17.5 17.6574 17.0523 17.6574 16.5C17.6574 15.9477 18.1052 15.5 18.6574 15.5C19.6809 15.5 20.5776 15.9346 21.2774 16.5034C21.9769 17.0721 22.533 17.8152 22.9004 18.5554Z" fill="black"/>
</svg>
