<svg width="24" height="24" viewBox="0 0 24 24" fill="none" xmlns="http://www.w3.org/2000/svg">
<path fill-rule="evenodd" clip-rule="evenodd" d="M14.0001 3C10.6864 3 8.00014 5.68629 8.00014 9C8.00014 12.3137 10.6864 15 14.0001 15C17.3138 15 20.0001 12.3137 20.0001 9C20.0001 5.68629 17.3138 3 14.0001 3ZM10.0001 9C10.0001 6.79086 11.791 5 14.0001 5C16.2093 5 18.0001 6.79086 18.0001 9C18.0001 11.2091 16.2093 13 14.0001 13C11.791 13 10.0001 11.2091 10.0001 9Z" fill="black"/>
<path d="M8.15554 20.5272C7.86437 20.9965 7.24789 21.1409 6.7786 20.8497C6.3093 20.5586 6.1649 19.9421 6.45606 19.4728C7.82546 17.2656 10.6269 15 14.0001 15C17.3733 15 20.1748 17.2656 21.5442 19.4728C21.8354 19.9421 21.691 20.5586 21.2217 20.8497C20.7524 21.1409 20.1359 20.9965 19.8448 20.5272C18.7226 18.7185 16.4845 17 14.0001 17C11.5158 17 9.27769 18.7185 8.15554 20.5272Z" fill="black"/>
<path d="M7.89799 6.55972C8.14116 7.05559 7.93629 7.6547 7.44042 7.89786C6.53175 8.34344 6.00014 9.15179 6.00014 10C6.00014 10.8482 6.53175 11.6566 7.44042 12.1021C7.93629 12.3453 8.14116 12.9444 7.89799 13.4403C7.65483 13.9362 7.05573 14.141 6.55985 13.8979C5.08305 13.1737 4.00014 11.7335 4.00014 10C4.00014 8.26647 5.08305 6.82632 6.55985 6.10214C7.05573 5.85898 7.65483 6.06384 7.89799 6.55972Z" fill="black"/>
<path d="M4.15554 20.5272C3.86437 20.9965 3.24789 21.1409 2.7786 20.8497C2.3093 20.5586 2.1649 19.9421 2.45606 19.4728C3.03516 18.5394 3.96169 17.7604 4.99537 17.1559C5.47213 16.8772 6.08462 17.0377 6.3634 17.5144C6.64218 17.9912 6.48169 18.6037 6.00493 18.8824C5.14122 19.3875 4.50575 19.9627 4.15554 20.5272Z" fill="black"/>
</svg>
